# xmcd
#
# Track frame offsets: 
#        150
#        81996
#        125919
#        143705
#        176802
#        236307
#        255991
#
# Disc length: 3643 seconds
#
# Revision: 0
# Processed by: cddbd v1.5.2PL0 Copyright (c) Steve Scherf et al.
# Submitted via: ExactAudioCopy v0.95b3
#
DISCID=5b0e3907
DTITLE=Jimi Hendrix  - Vibratory Fillmore 69 Merge Final Ver. 2.01 - D
DTITLE=isc 2  FLAC
DYEAR=1900
DGENRE=
TTITLE0=Stone Free Disc 2 Fade-in
TTITLE1=Them Changes
TTITLE2=Message To Love
TTITLE3=Stop
TTITLE4=Foxy Lady
TTITLE5=Voodoo Child(SR)
TTITLE6=Purple Haze
EXTD=
EXTT0=
EXTT1=
EXTT2=
EXTT3=
EXTT4=
EXTT5=
EXTT6=
PLAYORDER=
